<?xml version="1.0" encoding="utf-8"?>
<!-- Generator: Adobe Illustrator 25.2.1, SVG Export Plug-In . SVG Version: 6.00 Build 0)  -->
<svg version="1.1" id="Layer_1" xmlns="http://www.w3.org/2000/svg" xmlns:xlink="http://www.w3.org/1999/xlink" x="0px" y="0px"
	 viewBox="0 0 512 512" style="enable-background:new 0 0 512 512;" xml:space="preserve">
<style type="text/css">
	.st0{fill-rule:evenodd;clip-rule:evenodd;}
</style>
<g id="Layer_2_1_">
	<g id="Layer_1-2">
		<path class="st0" d="M503.2,322.6c11.8-43.5,11.8-89.3,0-132.8C466.6,53.2,326-27.8,189.3,8.8C86.8,36.2,11.8,123.9,0.7,229.5H44
			C54.7,143.7,116.3,73,199.8,50.7c106.3-28.5,215.4,29,253.4,129.7L411,191.6c-19-45.8-57.4-80.9-104.7-95.8l-7.7,43.8
			c64.3,23.6,97.2,94.8,73.6,159c-11.2,30.6-34.1,55.6-63.6,69.5l11.5,43c70.2-29.1,112.2-101.6,102.3-177l42-11.2
			c4.4,28,3.1,56.7-3.9,84.2L503.2,322.6z"/>
		<path d="M322,503.2c-136.7,36.6-277.2-44.5-313.9-181c-4.2-15.6-6.9-31.6-8.1-47.8h43.3c2.3,24.8,8.9,49.1,19.5,71.6l38.6-23.1
			c-3.3-7.6-6-15.4-8.2-23.5c-24-89.6,29.2-181.7,118.9-205.7c16.5-4.4,33.7-6.3,50.8-5.6l-7.7,43.9
			c-68.6,0.3-123.9,56.1-123.6,124.7c0,10.6,1.4,21.1,4.2,31.4c1.1,4.1,2.4,8,3.8,11.9l49.4-29.6L174.1,231l46.6-47.9l58.9-12.7
			l17,21l-27.1,27.5l-23.7,7.4l-16.9,17.4l8.3,23.1c0,0,16.8,17.8,16.8,17.8l23.7-6.3l16.9-18.5l36.9-11.7l11,24.7l-38,46.6
			l-63.7,20.2l-28.6-31.8l-49.9,29.9c26,29.6,64.5,45.1,103.7,41.9l11.5,43c-58.5,7.6-116.7-15.8-153.5-61.9l-38.4,23
			C156.7,477,290,495,383.3,423.9c26.3-20,47.5-45.9,62.1-75.6l42.6,15.5C456.1,432.6,395.3,483.7,322,503.2z"/>
	</g>
</g>
</svg>
