<?xml version="1.0" encoding="utf-8"?>
<!-- Generator: Adobe Illustrator 25.2.1, SVG Export Plug-In . SVG Version: 6.00 Build 0)  -->
<svg version="1.1" id="Layer_1" xmlns="http://www.w3.org/2000/svg" xmlns:xlink="http://www.w3.org/1999/xlink" x="0px" y="0px"
	 viewBox="0 0 32 32" style="enable-background:new 0 0 32 32;" xml:space="preserve">
<style type="text/css">
	.st0{fill:#FFFFFF;}
</style>
<path class="st0" d="M21.6,11.6l9-2.2c0.9,2.1,1.4,4.3,1.4,6.6c0,8.8-7.2,16-16,16c-0.4,0-0.8,0-1.2,0l6.5-11.1
	c0.5-0.5,0.9-1.1,1.2-1.7c0.9-2,0.9-4.3-0.1-6.3C22.2,12.4,21.9,12,21.6,11.6L21.6,11.6z M17.3,23l-2.8,8.9C6.3,31.1,0,24.2,0,16
	C0,12.8,0.9,9.7,2.7,7l6.4,11.2c0.2,0.7,1.5,3.4,4.1,4.4C14.6,23.1,16,23.3,17.3,23L17.3,23z M16,10.2c-2.7,0-5.2,2.1-5.7,4.7
	c-0.4,2,0.2,4,1.7,5.4c1.6,1.6,4.2,2.1,6.3,1.2c1.9-0.8,3.3-2.6,3.6-4.6c0.4-2.5-1.1-5.1-3.3-6.2C17.7,10.3,16.8,10.2,16,10.2
	L16,10.2z M9.4,13.3L3,6.6C6,2.5,10.9,0,16,0c6.1,0,11.7,3.5,14.4,8.9H16.7c-2.4-0.2-4.4,0.7-5.7,1.9C10.3,11.5,9.8,12.4,9.4,13.3z"
	/>
</svg>
