<?xml version="1.0" encoding="utf-8"?>
<!-- Generator: Adobe Illustrator 25.2.1, SVG Export Plug-In . SVG Version: 6.00 Build 0)  -->
<svg version="1.1" id="Layer_1" xmlns="http://www.w3.org/2000/svg" xmlns:xlink="http://www.w3.org/1999/xlink" x="0px" y="0px"
	 viewBox="0 0 32 32" style="enable-background:new 0 0 32 32;" xml:space="preserve">
<style type="text/css">
	.st0{fill:#FFFFFF;}
</style>
<path class="st0" d="M11.8,9.8C11.8,9.8,11.8,9.8,11.8,9.8z M8.1,7.9C8.1,7.9,8.1,7.9,8.1,7.9z M30.2,10.8c-0.7-1.6-2-3.3-3.1-3.9
	c0.9,1.7,1.4,3.4,1.6,4.7l0,0C27,7.3,24,5.5,21.6,1.7c-0.1-0.2-0.2-0.4-0.4-0.6c-0.1-0.1-0.1-0.2-0.2-0.3c-0.1-0.2-0.2-0.4-0.2-0.6
	c0,0,0,0,0,0c0,0,0,0,0,0l0,0c0,0,0,0,0,0s0,0,0,0c-3.4,2-4.8,5.5-5.2,7.7c-1.1,0.1-2.1,0.3-3,0.8c-0.2,0.1-0.3,0.3-0.2,0.5
	c0.1,0.2,0.3,0.3,0.5,0.2c0.8-0.4,1.7-0.6,2.7-0.7l0.1,0c0.1,0,0.3,0,0.4,0c0.7,0,1.5,0.1,2.2,0.3l0.1,0c0.1,0,0.2,0.1,0.4,0.1
	c0.1,0,0.2,0.1,0.3,0.1c0.1,0,0.1,0.1,0.2,0.1c0.1,0,0.2,0.1,0.3,0.2l0.1,0.1c0.1,0.1,0.2,0.1,0.3,0.2c0.1,0,0.1,0.1,0.2,0.1
	c1.1,0.7,2,1.6,2.7,2.8c-0.8-0.6-2.3-1.1-3.7-0.9c5.5,2.8,4,12.3-3.6,11.9c-0.7,0-1.4-0.2-2-0.4c-0.2-0.1-0.3-0.1-0.5-0.2
	c-0.1,0-0.2-0.1-0.3-0.1c-1.9-1-3.4-2.8-3.6-5c0,0,0.7-2.6,5.1-2.6c0.5,0,1.8-1.3,1.8-1.7c0-0.1-2.7-1.2-3.7-2.2
	c-0.6-0.5-0.8-0.8-1.1-1c-0.1-0.1-0.3-0.2-0.4-0.3c-0.3-1.2-0.4-2.5,0-3.8C9.3,7,8,8.1,7.1,9.1h0C6.5,8.3,6.6,5.8,6.6,5.3
	c0,0-0.5,0.2-0.5,0.3C5.6,5.9,5,6.4,4.6,6.8c-0.5,0.5-1,1.1-1.4,1.7c-1,1.4-1.7,3-2.1,4.6c0,0-0.1,0.6-0.2,1.4c0,0.1,0,0.2-0.1,0.4
	c0,0.3-0.1,0.6-0.1,0.9l0,0c0,0.2,0,0.3,0,0.5v0.1C0.7,25,7.5,31.8,16,31.8c7.6,0,13.9-5.5,15.1-12.8c0-0.2,0-0.4,0.1-0.6
	C31.5,15.9,31.2,13.1,30.2,10.8L30.2,10.8z"/>
</svg>
